<?xml version="1.0" standalone="no"?><!DOCTYPE svg PUBLIC "-//W3C//DTD SVG 1.1//EN" "http://www.w3.org/Graphics/SVG/1.1/DTD/svg11.dtd"><svg t="1567282068558" class="icon" viewBox="0 0 1025 1024" version="1.1" xmlns="http://www.w3.org/2000/svg" p-id="2027" xmlns:xlink="http://www.w3.org/1999/xlink" width="200.1953125" height="200"><defs><style type="text/css"></style></defs><path d="M1018.16863 291.891782l-286.060412-286.060412c-9.338742-9.338742-21.64704-7.229333-27.360876 4.669371l-38.358473 79.911779 267.19861 267.19861 79.911779-38.358473c11.898704-5.713836 14.008113-18.022134 4.669371-27.360876z" p-id="2028"></path><path d="M615.394423 135.406415l-263.389387 21.954235c-17.489661 2.170848-32.071206 5.898153-37.088732 28.753495 0 0.02048-0.02048 0.040959-0.02048 0.061439-71.412704 343.055409-314.895825 677.83702-314.895825 677.83702l57.363632 57.363632 271.99086-271.99086c-6.000551-12.533575-9.359222-26.562167-9.359222-41.389468 0-53.021936 42.986885-96.008821 96.008821-96.008821s96.008821 42.986885 96.008821 96.008821-42.986885 96.008821-96.008821 96.008821c-14.827301 0-28.855893-3.35867-41.389468-9.359222l-271.99086 271.99086 57.363632 57.363632c0 0 334.781611-243.462641 677.83702-314.895825 0.02048 0 0.040959-0.02048 0.061439-0.02048 22.855342-5.017526 26.582647-19.59907 28.753495-37.088732l21.954235-263.389387-273.219641-273.219641z" p-id="2029"></path></svg>